<?xml version="1.0" encoding="utf-8"?>
<!-- Generator: Adobe Illustrator 22.0.1, SVG Export Plug-In . SVG Version: 6.00 Build 0)  -->
<svg version="1.1" id="Layer_1" xmlns="http://www.w3.org/2000/svg" xmlns:xlink="http://www.w3.org/1999/xlink" x="0px" y="0px"
	 viewBox="0 0 612 792" style="enable-background:new 0 0 612 792;" xml:space="preserve">
<style type="text/css">
	.st0{fill:#88878B;}
	.st1{fill:#6FBE4B;}
</style>
<g>
	<path class="st0" d="M308.2,628.6c-0.7-0.9-1.7-0.7-2.6-0.9c-12.5-3.1-20.5-10.9-23.2-23.5c-2-9.5-0.5-18.6,5.4-26.6
		c5.5-7.4,12.9-11.2,22-11.9c4.6-0.4,9.3-0.2,13.8,1c4.3,1.1,8.1,3.2,11.5,6.6c-1.8,2-3.6,4-5.3,5.8c-1,0.2-1.3-0.3-1.7-0.7
		c-4.4-3.7-9.4-5.1-15.1-5.2c-5.9-0.1-11,1.8-15.3,5.7c-3.4,3.1-5.6,7-6.6,11.4c-1.7,7.1-1,13.8,3.1,20c5.2,7.8,12.6,10.9,21.8,10.3
		c2.9-0.2,5.9-0.6,8.7-1.6c1.1-0.4,2.3-0.8,3.4-1.6c0-5.3,0-10.7,0-16.4c-4.3,0-8.6,0-13,0c-0.4-2.6-0.2-5-0.1-7.3
		c1.8-0.5,16.9-0.7,21.1-0.3c0.5,1.8,0.7,22.5,0.3,29.3c-1.3,1-2.9,1.7-4.6,2.3c-3.5,1.3-7.2,2.2-10.9,2.8c-0.4,0.1-1-0.1-1.2,0.5
		C315.9,628.6,312,628.6,308.2,628.6z"/>
	<path class="st0" d="M588,627.2c-0.6,0-1.1-0.1-1.7-0.1c-11.9,0-23.8,0-35.7,0c-0.9,0-1.7,0-2.5,0c-0.4-2-0.5-56.7-0.2-59.6
		c1.7-0.4,34.8-0.6,38.5-0.1c0.2,2.3,0.1,4.7,0.1,7c-0.9,0.7-1.8,0.5-2.6,0.5c-8.4,0-16.8,0-25.2,0c-0.9,0-1.7-0.1-2.7,0.2
		c0,5.8,0,11.5,0,17.5c3.2,0.1,6.3,0,9.4,0c3.1,0,6.2,0,9.4,0c3.1,0,6.2,0,9.4,0c0.3,2.6,0.2,5,0.1,7.6c-9.5,0.2-18.8,0-28.2,0.2
		c0,6.3,0,12.4,0,18.6c0.8,0.8,1.8,0.4,2.7,0.4c8.7,0,17.4,0,26.1,0c1,0,2.1,0.1,3.1,0.1C588,622.1,588,624.6,588,627.2z"/>
	<path class="st0" d="M42.3,628.6c-1.4-0.7-3-0.5-4.4-0.9c-3.8-1.1-7.4-2.5-10.2-5.4c-0.4-0.4-0.8-0.8-1.1-1.3
		c-0.2-0.2-0.3-0.5-0.5-0.9c2.1-1.8,4.2-3.7,6.3-5.4c0.8,0,1.1,0.6,1.4,1c3.7,4.6,12.4,7.2,19,3c3-1.9,4.6-4.6,4.5-8.2
		c-0.1-2.2-0.9-4-2.8-5.3c-1.8-1.3-3.9-2.3-6-3c-2.5-0.8-5-1.6-7.5-2.5c-4.1-1.4-7.7-3.5-10.3-7.1c-4-5.3-4.6-16,2.5-22
		c3.6-3.1,7.7-4.7,12.4-5c3.9-0.3,7.8,0,11.6,1.1c3.2,0.9,5.9,2.8,8.1,5.6c-2.1,1.9-4.2,3.9-6.2,5.7c-1,0-1.2-0.7-1.6-1.1
		c-2.3-2.4-5.2-3.6-8.6-3.7c-2.4-0.1-4.8,0.1-7,1c-4,1.8-6.2,5.9-5.3,10.2c0.4,1.7,1.3,3.1,2.6,4.2c2.5,2,5.4,3,8.4,3.9
		c3.6,1.1,7.3,1.9,10.5,3.9c3.8,2.3,6.7,5.3,7.4,9.8c1.5,10.1-3.2,17.6-12.1,20.9c-1.6,0.6-3.4,0.6-5,1.4
		C46.4,628.6,44.4,628.6,42.3,628.6z"/>
	<path class="st1" d="M294.8,499.7c-4.1-15.5-8.1-30.9-12.2-46.4c1.3-0.6,2.6-1.2,3.8-1.8c7.7-3.9,15.7-7.2,23.5-10.8
		c19.4-9,37.5-20,54.6-32.8c15-11.2,29.3-23.3,42.2-37c10-10.6,19.2-21.9,26.4-34.6c6.8-12.1,11.8-24.8,14.1-38.5
		c2.8-16.4,1-32.2-6.5-47.2c-7.9-15.8-19.8-27.7-35.5-35.8c-10.6-5.5-21.7-8.7-33.5-10.1c-8.6-1-17.2-1.1-25.9-0.2
		c-13.9,1.4-27.3,5-40.3,10.1c-20.8,8-40.4,18.5-59.2,30.4c-6.5,4.2-13.1,8.2-19.2,13.1c-4.6,3.7-8.9,7.8-12.6,12.4
		c-2.6,3.3-4.4,7-5.2,11.2c-1.1,6,2.3,12.3,10.4,12.9c2.8,0.2,5.6-0.3,8.2-1.2c5.2-1.7,10-4.3,14.8-6.8c9-4.8,17.4-10.4,26-15.9
		c10.4-6.6,20.8-13.3,31.7-18.9c8.8-4.5,17.9-8.2,27.6-10.2c12.6-2.5,24.9-1.8,36.6,3.6c12.6,5.8,20.4,15.7,23.2,29.3
		c1.7,8.1,0.2,16.1-2.7,23.8c-3,8.2-8,15.3-13.7,21.8c-10.5,12-22.7,22.1-36.3,30.3c-14.2,8.5-28.4,17-42.9,24.9
		c-14.6,8-29.9,14.1-45.7,19.1c-7.6,2.4-15.2,4.8-23.1,6.5c-10.6,2.3-21.3,3.4-32.1,3c-11.8-0.5-23.3-2.6-34.1-7.8
		c-18.4-8.9-30.2-23.2-35.4-42.9c-1.9-7.2-2.8-14.6-2.7-22.1c0.2-14,3.2-27.6,8.3-40.6c5.3-13.4,12.8-25.6,21.4-37.1
		c10.9-14.6,23.7-27.3,37.6-38.9c15.7-13.1,32.2-25,49.8-35.5c8.2-4.9,16.6-9.3,25-13.8c0.2-0.1,0.4-0.2,0.9-0.3
		c2.1,4.4,4.3,8.8,6.4,13.2c-0.7,1.1-1.7,1.3-2.5,1.8c-10,5.3-20,10.7-29.7,16.7c-21.3,13.4-41,28.7-58.3,47
		c-11.8,12.5-21.3,26.6-27.5,42.7c-3.6,9.3-5.6,19-5.5,29c0.1,7,1,13.9,3.4,20.5c3.8,10.6,10.5,18.7,20.2,24.5
		c7.9,4.7,16.5,7.1,25.6,7.9c14.3,1.3,28-1.4,41.5-5.6c19.9-6.2,38.6-14.9,56.7-25.1c10.4-5.9,20.8-12,30.6-18.8
		c7-4.8,13.4-10.4,19.2-16.6c2.9-3.1,5.3-6.4,6.9-10.3c1.6-3.8,2.3-7.7,1.3-11.7c-1.5-6.4-5.9-10.1-12.1-11.6
		c-4.9-1.3-9.8-0.8-14.7,0.7c-5.4,1.7-10.4,4.2-15.3,6.8c-8.7,4.6-17,9.8-25.3,15.1c-11,7.1-22.1,14.2-33.7,20.3
		c-7.4,3.9-14.9,7.3-23,9.5c-6.4,1.7-12.8,2.5-19.5,1.7c-11.8-1.5-21.7-9.1-24-22.3c-0.9-5.3-0.3-10.5,1.1-15.7
		c2.4-9,7.1-16.7,13.1-23.7c7.7-9,16.6-16.7,26.4-23.3c19-12.8,38.5-24.7,59.3-34.3c15.2-7.1,30.9-13.2,47.2-17.2
		c9.4-2.3,18.9-3.9,28.6-4.7c7.4-0.6,14.7-0.7,22.1-0.3c25.1,1.4,48.5,8.2,69.2,22.8c19.3,13.7,33.1,31.6,40.7,54.1
		c3.9,11.6,5.1,23.5,4.8,35.7c-0.3,12.1-2.8,23.8-6.5,35.2c-6.5,20.4-17.1,38.5-30.1,55.3c-10.1,13.2-21.8,24.9-34,36.1
		c-8.3,7.6-16.7,15.2-25.6,22.1c-14.7,11.4-30.3,21.4-46.4,30.7c-15.3,8.8-31.5,16.1-47.9,22.6C301.4,496.9,298.3,498.3,294.8,499.7
		z"/>
	<path class="st0" d="M245.3,626.5c-0.4,0.6-0.7,0.6-1,0.6c-2.7,0-5.4,0-8.2,0c-2-4.9-4-9.8-6-14.6c-2-0.3-25-0.4-28.5-0.1
		c-1.9,4.7-3.9,9.6-5.9,14.5c-3.1,0-6.1,0-9.1,0c-0.1-0.1-0.1-0.1-0.1-0.2c0-0.1-0.1-0.2-0.1-0.2c0.1-0.4,0.2-0.8,0.4-1.1
		c8.5-19.4,17.1-38.7,25.6-58.2c2.5-0.1,5-0.2,7.6,0C228.5,587.1,236.9,606.9,245.3,626.5z M204.6,604.8c2.3,0.4,19.9,0.4,21.9,0
		c-0.2-1.8-9.3-24.5-10.8-26.9C212,586.9,208.3,595.8,204.6,604.8z"/>
	<path class="st0" d="M402.1,567.2c2.5,0,4.8,0,7.4,0c8.5,19.8,16.9,39.6,25.4,59.4c-1.8,0.6-6.4,0.7-9.5,0.2
		c-2-4.8-3.9-9.6-5.9-14.5c-9.5,0-18.9,0-28.4,0c-2,4.8-3.9,9.7-5.9,14.6c-3.1,0-6.1,0-9.1,0C376.4,624.9,399,573.2,402.1,567.2z
		 M405.4,577.6c-2,4.9-4,9.3-5.8,13.9c-1.8,4.5-3.8,8.8-5.4,13.5c6,0.5,20.2,0.3,22.2-0.3C412.7,595.7,409.2,586.9,405.4,577.6z"/>
	<path class="st0" d="M150.1,619.8c0.2,2.3,0.2,4.7,0,7c-1.8,0.4-36.9,0.5-39.8,0.2c-0.5-1.7-0.6-55-0.2-59.3
		c1.7-0.5,33.6-0.7,38.2-0.2c0.5,1.7,0.6,4.9,0.1,7.5c-10,0-20,0-30.2,0c0,6,0,11.7,0,17.6c2.3,0.4,4.6,0.2,6.9,0.2
		c2.4,0,4.8,0,7.2,0c2.3,0,4.6,0,7,0c2.3,0,4.6,0,7,0c0,2.6,0,5,0,7.6c-3.1,0.1-6.2,0-9.3,0.1c-3.1,0-6.2,0-9.4,0
		c-3.1,0-6.2,0-9.4,0c0,6.4,0,12.5,0,18.7c0.8,0.8,1.8,0.4,2.7,0.4c8.8,0,17.6,0,26.4,0C148.2,619.4,149.1,619.2,150.1,619.8z"/>
	<path class="st0" d="M479.6,574.9c-6.5,0-12.7,0-19.1,0c-0.3-2.5-0.1-4.9-0.2-7.2c0.2-0.2,0.2-0.2,0.3-0.3c0.1-0.1,0.1-0.1,0.2-0.1
		c0.6,0,1.1-0.1,1.7-0.1c14.6,0,29.2,0,43.9,0.1c0.1,0,0.3,0.1,0.5,0.3c0.2,2.3,0.1,4.6,0.1,7.2c-6.4,0-12.6,0-18.7,0
		c-0.8,1.1-0.5,2.1-0.5,3c0,15.5,0,31,0,46.5c0,0.9,0.2,1.8-0.3,2.7c-2.5,0-5,0-7.7,0c-0.3-2.5-0.1-4.9-0.1-7.4c0-2.5,0-5,0-7.4
		c0-2.5,0-5,0-7.4c0-2.4,0-4.8,0-7.2c0-2.5,0-5,0-7.4c0-2.5,0-5,0-7.4C479.6,580.2,479.6,577.7,479.6,574.9z"/>
</g>
</svg>
